<svg width="78" height="51" viewBox="0 0 78 51" fill="none" xmlns="http://www.w3.org/2000/svg">
<path d="M5.44 38.408C4.44267 38.408 3.62667 38.068 2.992 37.388C2.35733 36.708 2.04 35.8693 2.04 34.872C2.04 33.8747 2.35733 33.036 2.992 32.356C3.62667 31.676 4.44267 31.336 5.44 31.336C6.43733 31.336 7.25333 31.676 7.888 32.356C8.52267 33.036 8.84 33.8747 8.84 34.872C8.84 35.8693 8.52267 36.708 7.888 37.388C7.25333 38.068 6.43733 38.408 5.44 38.408ZM18.0986 38.408C17.1013 38.408 16.2626 38.2607 15.5826 37.966C14.9253 37.6487 14.3926 37.2067 13.9846 36.64C13.5766 36.0733 13.282 35.4047 13.1006 34.634C12.942 33.8407 12.8626 32.968 12.8626 32.016V14.336H18.7106V32.22C18.7106 32.8093 18.8126 33.206 19.0166 33.41C19.2433 33.614 19.4586 33.716 19.6626 33.716C19.776 33.716 19.8666 33.716 19.9346 33.716C20.0253 33.716 20.1386 33.6933 20.2746 33.648L20.9546 37.932C20.6373 38.068 20.2406 38.1813 19.7646 38.272C19.3113 38.3627 18.756 38.408 18.0986 38.408ZM30.5376 38.408C29.4496 38.408 28.3956 38.2153 27.3756 37.83C26.3556 37.422 25.4489 36.844 24.6556 36.096C23.8849 35.3253 23.2616 34.3847 22.7856 33.274C22.3322 32.1633 22.1056 30.9053 22.1056 29.5C22.1056 28.0947 22.3322 26.8367 22.7856 25.726C23.2616 24.6153 23.8849 23.686 24.6556 22.938C25.4489 22.1673 26.3556 21.5893 27.3756 21.204C28.3956 20.796 29.4496 20.592 30.5376 20.592C31.6256 20.592 32.6682 20.796 33.6656 21.204C34.6856 21.5893 35.5809 22.1673 36.3516 22.938C37.1449 23.686 37.7796 24.6153 38.2556 25.726C38.7316 26.8367 38.9696 28.0947 38.9696 29.5C38.9696 30.9053 38.7316 32.1633 38.2556 33.274C37.7796 34.3847 37.1449 35.3253 36.3516 36.096C35.5809 36.844 34.6856 37.422 33.6656 37.83C32.6682 38.2153 31.6256 38.408 30.5376 38.408ZM30.5376 33.716C31.4216 33.716 32.0449 33.342 32.4076 32.594C32.7929 31.8233 32.9856 30.792 32.9856 29.5C32.9856 28.208 32.7929 27.188 32.4076 26.44C32.0449 25.6693 31.4216 25.284 30.5376 25.284C29.6536 25.284 29.0189 25.6693 28.6336 26.44C28.2709 27.188 28.0896 28.208 28.0896 29.5C28.0896 30.792 28.2709 31.8233 28.6336 32.594C29.0189 33.342 29.6536 33.716 30.5376 33.716ZM48.203 45.004C47.2283 45.004 46.3103 44.9247 45.449 44.766C44.5876 44.63 43.8283 44.392 43.171 44.052C42.5363 43.712 42.0263 43.27 41.641 42.726C41.2556 42.2047 41.063 41.5587 41.063 40.788C41.063 39.4507 41.8563 38.3627 43.443 37.524V37.388C42.9896 37.0707 42.6156 36.6853 42.321 36.232C42.0263 35.7787 41.879 35.1893 41.879 34.464C41.879 33.8747 42.049 33.2967 42.389 32.73C42.729 32.1633 43.1936 31.676 43.783 31.268V31.132C43.171 30.724 42.627 30.146 42.151 29.398C41.6976 28.65 41.471 27.7773 41.471 26.78C41.471 25.7373 41.675 24.8307 42.083 24.06C42.491 23.2667 43.035 22.6207 43.715 22.122C44.395 21.6007 45.1656 21.2153 46.027 20.966C46.911 20.7167 47.8176 20.592 48.747 20.592C49.7443 20.592 50.651 20.728 51.467 21H57.791V25.216H55.343C55.411 25.42 55.4676 25.6807 55.513 25.998C55.581 26.3153 55.615 26.644 55.615 26.984C55.615 27.9813 55.4336 28.8427 55.071 29.568C54.7083 30.2707 54.221 30.8487 53.609 31.302C52.997 31.7553 52.2716 32.0953 51.433 32.322C50.5943 32.526 49.699 32.628 48.747 32.628C48.1803 32.628 47.5456 32.5487 46.843 32.39C46.6616 32.5487 46.5483 32.696 46.503 32.832C46.4576 32.9453 46.435 33.1267 46.435 33.376C46.435 33.7613 46.6163 34.0333 46.979 34.192C47.3416 34.328 47.9536 34.396 48.815 34.396H51.365C53.4956 34.396 55.139 34.7473 56.295 35.45C57.4736 36.13 58.063 37.252 58.063 38.816C58.063 39.7453 57.825 40.584 57.349 41.332C56.8956 42.1027 56.2383 42.76 55.377 43.304C54.5383 43.848 53.507 44.2673 52.283 44.562C51.0816 44.8567 49.7216 45.004 48.203 45.004ZM48.747 29.16C49.291 29.16 49.733 28.9673 50.073 28.582C50.413 28.1967 50.583 27.596 50.583 26.78C50.583 25.9867 50.413 25.4087 50.073 25.046C49.733 24.6607 49.291 24.468 48.747 24.468C48.203 24.468 47.761 24.6607 47.421 25.046C47.081 25.4087 46.911 25.9867 46.911 26.78C46.911 27.596 47.081 28.1967 47.421 28.582C47.761 28.9673 48.203 29.16 48.747 29.16ZM49.155 41.4C50.107 41.4 50.9003 41.2527 51.535 40.958C52.1696 40.686 52.487 40.312 52.487 39.836C52.487 39.3827 52.283 39.0993 51.875 38.986C51.4896 38.8727 50.9343 38.816 50.209 38.816H48.883C48.203 38.816 47.6816 38.7933 47.319 38.748C46.979 38.7253 46.6843 38.68 46.435 38.612C46.231 38.816 46.0723 39.0087 45.959 39.19C45.8683 39.3713 45.823 39.5867 45.823 39.836C45.823 40.38 46.129 40.7767 46.741 41.026C47.353 41.2753 48.1576 41.4 49.155 41.4ZM67.4595 38.408C66.3715 38.408 65.3175 38.2153 64.2975 37.83C63.2775 37.422 62.3708 36.844 61.5775 36.096C60.8068 35.3253 60.1835 34.3847 59.7075 33.274C59.2541 32.1633 59.0275 30.9053 59.0275 29.5C59.0275 28.0947 59.2541 26.8367 59.7075 25.726C60.1835 24.6153 60.8068 23.686 61.5775 22.938C62.3708 22.1673 63.2775 21.5893 64.2975 21.204C65.3175 20.796 66.3715 20.592 67.4595 20.592C68.5475 20.592 69.5901 20.796 70.5875 21.204C71.6075 21.5893 72.5028 22.1673 73.2735 22.938C74.0668 23.686 74.7015 24.6153 75.1775 25.726C75.6535 26.8367 75.8915 28.0947 75.8915 29.5C75.8915 30.9053 75.6535 32.1633 75.1775 33.274C74.7015 34.3847 74.0668 35.3253 73.2735 36.096C72.5028 36.844 71.6075 37.422 70.5875 37.83C69.5901 38.2153 68.5475 38.408 67.4595 38.408ZM67.4595 33.716C68.3435 33.716 68.9668 33.342 69.3295 32.594C69.7148 31.8233 69.9075 30.792 69.9075 29.5C69.9075 28.208 69.7148 27.188 69.3295 26.44C68.9668 25.6693 68.3435 25.284 67.4595 25.284C66.5755 25.284 65.9408 25.6693 65.5555 26.44C65.1928 27.188 65.0115 28.208 65.0115 29.5C65.0115 30.792 65.1928 31.8233 65.5555 32.594C65.9408 33.342 66.5755 33.716 67.4595 33.716Z" fill="black"/>
</svg>
